<svg width="1440" height="614" viewBox="0 0 1440 614" fill="none" xmlns="http://www.w3.org/2000/svg">
<path d="M1526.63 366.589L721.314 2.00248M721.314 2.00248L1526.63 549.439M721.314 2.00248L-83.9999 366.589M721.314 2.00248L-83.9999 549.439M1526.06 399.48L721.312 2.00318M1526.63 439.058L721.314 1.99965M721.314 1.99965L1526.63 488.117M721.314 1.99965L1526.63 627.482M721.314 1.99965L1526.63 732.288M721.314 1.99965L1526.63 879.462M721.314 1.99965L1424.01 960.852M721.314 1.99965L714.623 960.852M721.314 1.99965L-83.9999 439.058M721.314 1.99965L-83.9999 488.117M721.314 1.99965L-83.9999 627.482M721.314 1.99965L-83.9999 732.288M721.314 1.99965L-83.9999 879.462M1245.54 960.852L721.312 2.00062M721.312 2.00062L1068.2 960.852M721.312 2.00062L551.773 960.852M890.856 960.852L721.315 2.00062M721.315 2.00062L18.6179 960.851M721.315 2.00062L197.081 960.851M721.315 2.00062L374.428 960.851M-83.4394 399.48L721.317 2.00318M1526.63 843.782L-79.5378 843.782M1526.63 751.243L-79.5378 751.242M1526.63 675.428L-79.5378 675.427M1526.63 615.219L-79.5378 615.219M1526.63 563.932L-79.5378 563.932M1526.63 521.561L-79.5378 521.561M1526.63 484.773L-79.5378 484.773M1526.63 452.438L-79.5378 452.437M1526.63 423.451L-79.5378 423.451M1526.63 398.921L-79.5378 398.921M1526.63 377.739L-79.5378 377.739M1526.63 357.67L-79.5378 357.67" stroke="url(#paint0_radial_49_1267)"/>
<defs>
<radialGradient id="paint0_radial_49_1267" cx="0" cy="0" r="1" gradientUnits="userSpaceOnUse" gradientTransform="translate(709.224 971.822) rotate(-88.9367) scale(651.464 1632.37)">
<stop stop-color="#CD42AE"/>
<stop offset="1" stop-opacity="0"/>
</radialGradient>
</defs>
</svg>
