<svg width="552" height="147" viewBox="0 0 552 147" fill="none" xmlns="http://www.w3.org/2000/svg">
<mask id="mask0_1_3090" style="mask-type:luminance" maskUnits="userSpaceOnUse" x="120" y="-138" width="312" height="266">
<path d="M221.604 -137.151C221.86 -137.158 221.86 -137.158 221.86 -137.157L221.865 -136.932C221.869 -136.781 221.875 -136.554 221.883 -136.251C221.897 -135.644 221.919 -134.729 221.947 -133.497C222.003 -131.035 222.083 -127.308 222.179 -122.247C222.37 -112.127 222.626 -96.675 222.881 -75.3493C223.392 -32.6979 223.903 33.4495 223.903 127.435H223.392C223.392 33.4516 222.881 -32.6938 222.37 -75.3432C222.115 -96.6679 221.86 -112.119 221.668 -122.238C221.572 -127.298 221.492 -131.024 221.437 -133.486C221.409 -134.717 221.387 -135.631 221.372 -136.238C221.364 -136.542 221.358 -136.768 221.355 -136.919L221.349 -137.143C221.349 -137.143 221.349 -137.144 221.604 -137.151ZM202.96 -137.172C202.96 -137.173 202.96 -137.173 202.705 -137.151C202.451 -137.129 202.451 -137.128 202.451 -137.128L202.455 -137.073C202.459 -137.036 202.464 -136.979 202.47 -136.904C202.482 -136.754 202.501 -136.527 202.525 -136.224C202.574 -135.618 202.645 -134.703 202.736 -133.473C202.917 -131.012 203.177 -127.286 203.488 -122.227C204.11 -112.109 204.94 -96.6597 205.77 -75.3366C207.43 -32.6897 209.09 33.4536 209.09 127.435H209.601C209.601 33.4475 207.941 -32.702 206.281 -75.3565C205.451 -96.6832 204.62 -112.136 203.998 -122.258C203.686 -127.319 203.427 -131.047 203.245 -133.511C203.155 -134.742 203.083 -135.657 203.035 -136.265C203.01 -136.569 202.991 -136.796 202.979 -136.947C202.972 -137.022 202.968 -137.079 202.965 -137.116L202.96 -137.172ZM184.317 -137.151C184.571 -137.181 184.571 -137.181 184.571 -137.181L184.577 -137.124C184.582 -137.087 184.588 -137.03 184.597 -136.955C184.615 -136.804 184.64 -136.577 184.674 -136.273C184.741 -135.665 184.841 -134.749 184.966 -133.518C185.218 -131.054 185.577 -127.326 186.008 -122.264C186.87 -112.142 188.02 -96.6878 189.169 -75.3601C191.468 -32.7046 193.766 33.4465 193.766 127.435H193.256C193.256 33.4546 190.957 -32.6872 188.659 -75.3325C187.51 -96.6551 186.361 -112.104 185.499 -122.221C185.068 -127.279 184.709 -131.005 184.458 -133.466C184.332 -134.696 184.234 -135.61 184.166 -136.216C184.133 -136.52 184.107 -136.746 184.09 -136.896C184.081 -136.971 184.074 -137.027 184.07 -137.065L184.064 -137.12C184.064 -137.12 184.064 -137.12 184.317 -137.151ZM165.668 -137.203C165.668 -137.203 165.668 -137.204 165.418 -137.151C165.168 -137.097 165.168 -137.097 165.168 -137.097L165.171 -137.084L165.18 -137.042C165.188 -137.005 165.199 -136.949 165.215 -136.874C165.245 -136.724 165.291 -136.498 165.351 -136.195C165.471 -135.59 165.646 -134.676 165.869 -133.446C166.315 -130.986 166.954 -127.262 167.72 -122.204C169.251 -112.089 171.294 -96.6423 173.336 -75.3217C177.422 -32.68 181.508 33.4582 181.508 127.435H182.018C182.018 33.4434 177.932 -32.7112 173.845 -75.3703C171.801 -96.7001 169.758 -112.156 168.225 -122.281C167.458 -127.343 166.819 -131.073 166.372 -133.537C166.148 -134.77 165.972 -135.686 165.852 -136.294C165.792 -136.598 165.746 -136.825 165.715 -136.977C165.699 -137.052 165.688 -137.109 165.68 -137.147L165.671 -137.19L165.668 -137.203ZM144.987 -137.151C145.23 -137.229 145.23 -137.228 145.23 -137.228L145.231 -137.225L145.235 -137.214L145.248 -137.171C145.26 -137.133 145.278 -137.076 145.301 -137C145.348 -136.849 145.417 -136.621 145.507 -136.317C145.687 -135.708 145.951 -134.792 146.287 -133.559C146.958 -131.093 147.917 -127.362 149.067 -122.299C151.367 -112.172 154.433 -96.7144 157.498 -75.3825C163.63 -32.7189 169.76 33.4398 169.76 127.435H169.249C169.249 33.4618 163.12 -32.6724 156.993 -75.31C153.929 -96.6286 150.866 -112.073 148.569 -122.186C147.42 -127.242 146.463 -130.966 145.794 -133.424C145.459 -134.654 145.196 -135.567 145.017 -136.172C144.928 -136.475 144.859 -136.701 144.813 -136.85C144.79 -136.925 144.773 -136.981 144.761 -137.018L144.748 -137.06L144.745 -137.07L144.744 -137.072C144.744 -137.072 144.744 -137.073 144.987 -137.151ZM121.211 -137.26C121.211 -137.26 121.21 -137.261 120.98 -137.151C120.75 -137.04 120.75 -137.04 120.75 -137.04L120.751 -137.037L120.756 -137.027L120.776 -136.986C120.793 -136.949 120.819 -136.893 120.854 -136.819C120.923 -136.669 121.025 -136.444 121.16 -136.141C121.428 -135.536 121.822 -134.624 122.324 -133.395C123.327 -130.938 124.762 -127.215 126.485 -122.16C129.929 -112.05 134.523 -96.6081 139.118 -75.2921C148.308 -32.6611 157.501 33.4674 157.501 127.435H158.012C158.012 33.4342 148.816 -32.7306 139.618 -75.3999C135.019 -96.7348 130.419 -112.195 126.968 -122.325C125.242 -127.389 123.804 -131.121 122.797 -133.588C122.293 -134.821 121.897 -135.739 121.626 -136.348C121.491 -136.653 121.387 -136.881 121.317 -137.033C121.282 -137.108 121.256 -137.165 121.238 -137.204L121.217 -137.247L121.212 -137.257L121.211 -137.26ZM294.902 -137.151C294.646 -137.151 294.646 -137.15 294.646 -137.15V127.435H295.157V-137.15C295.157 -137.15 295.157 -137.151 294.902 -137.151ZM275.236 -137.15C275.236 -137.15 275.236 -137.151 275.492 -137.151C275.747 -137.151 275.747 -137.15 275.747 -137.15V127.435H275.236V-137.15ZM240.503 -137.15C240.503 -137.15 240.503 -137.151 240.759 -137.151C241.014 -137.151 241.014 -137.15 241.014 -137.15L241.014 127.435H240.503L240.503 -137.15ZM257.614 -137.151C257.359 -137.151 257.359 -137.15 257.359 -137.15V127.435H257.87V-137.15C257.87 -137.15 257.87 -137.151 257.614 -137.151ZM312.779 -137.157C312.779 -137.157 312.779 -137.158 313.034 -137.151C313.29 -137.144 313.29 -137.143 313.29 -137.143L313.284 -136.919C313.28 -136.768 313.274 -136.542 313.267 -136.238C313.252 -135.631 313.23 -134.717 313.202 -133.486C313.146 -131.024 313.066 -127.298 312.97 -122.238C312.779 -112.119 312.524 -96.6679 312.268 -75.3432C311.757 -32.6938 311.247 33.4516 311.247 127.435H310.736C310.736 33.4495 311.247 -32.6979 311.757 -75.3493C312.013 -96.675 312.268 -112.127 312.46 -122.247C312.556 -127.308 312.635 -131.035 312.691 -133.497C312.719 -134.729 312.741 -135.644 312.756 -136.251C312.764 -136.554 312.769 -136.781 312.773 -136.932L312.779 -137.157ZM331.933 -137.151C331.679 -137.173 331.679 -137.172 331.679 -137.172L331.674 -137.116C331.671 -137.079 331.666 -137.022 331.66 -136.947C331.647 -136.796 331.628 -136.569 331.604 -136.265C331.555 -135.657 331.484 -134.742 331.393 -133.511C331.212 -131.047 330.952 -127.319 330.641 -122.258C330.018 -112.136 329.188 -96.6832 328.358 -75.3565C326.698 -32.7025 325.038 33.4475 325.038 127.435H325.549C325.549 33.4536 327.209 -32.6897 328.869 -75.3366C329.698 -96.6597 330.528 -112.109 331.151 -122.227C331.462 -127.286 331.721 -131.012 331.903 -133.473C331.994 -134.704 332.065 -135.618 332.113 -136.224C332.138 -136.528 332.156 -136.754 332.169 -136.904L332.183 -137.073L332.188 -137.128C332.188 -137.129 332.188 -137.129 331.933 -137.151ZM350.068 -137.181C350.068 -137.181 350.068 -137.182 350.322 -137.151C350.575 -137.12 350.575 -137.12 350.575 -137.12L350.568 -137.065C350.564 -137.027 350.557 -136.971 350.549 -136.896C350.531 -136.746 350.506 -136.52 350.472 -136.216C350.405 -135.61 350.306 -134.696 350.181 -133.466C349.929 -131.005 349.57 -127.28 349.14 -122.221C348.278 -112.104 347.129 -96.6551 345.979 -75.3325C343.681 -32.6872 341.383 33.4546 341.383 127.435H340.872C340.872 33.4465 343.171 -32.7046 345.47 -75.3601C346.619 -96.6878 347.768 -112.142 348.63 -122.264C349.061 -127.326 349.421 -131.054 349.672 -133.518C349.798 -134.749 349.897 -135.665 349.964 -136.273C349.998 -136.577 350.024 -136.804 350.042 -136.955C350.05 -137.03 350.057 -137.087 350.061 -137.124L350.068 -137.181ZM369.22 -137.151C368.971 -137.204 368.971 -137.203 368.971 -137.203L368.968 -137.19L368.958 -137.147C368.951 -137.109 368.939 -137.052 368.923 -136.977C368.893 -136.826 368.846 -136.598 368.786 -136.294C368.666 -135.686 368.491 -134.77 368.267 -133.537C367.819 -131.073 367.18 -127.343 366.414 -122.281C364.881 -112.156 362.837 -96.7001 360.794 -75.3708C356.707 -32.7112 352.62 33.4434 352.62 127.435H353.131C353.131 33.4582 357.217 -32.68 361.302 -75.3217C363.345 -96.6429 365.388 -112.089 366.919 -122.204C367.685 -127.262 368.323 -130.986 368.769 -133.446C368.993 -134.676 369.168 -135.59 369.287 -136.195C369.347 -136.498 369.393 -136.724 369.424 -136.874C369.439 -136.949 369.451 -137.005 369.459 -137.042L369.467 -137.084L369.47 -137.097C369.47 -137.097 369.47 -137.098 369.22 -137.151ZM389.408 -137.228C389.408 -137.228 389.409 -137.229 389.652 -137.151C389.895 -137.073 389.895 -137.072 389.895 -137.072L389.894 -137.07L389.891 -137.06L389.878 -137.018C389.866 -136.981 389.848 -136.925 389.825 -136.85C389.78 -136.701 389.711 -136.475 389.621 -136.172C389.442 -135.567 389.179 -134.654 388.845 -133.424C388.175 -130.966 387.218 -127.242 386.07 -122.186C383.773 -112.073 380.71 -96.6286 377.646 -75.31C371.519 -32.6724 365.39 33.4618 365.39 127.435H364.879C364.879 33.4398 371.009 -32.7189 377.14 -75.3825C380.206 -96.7144 383.272 -112.172 385.572 -122.299C386.722 -127.362 387.681 -131.093 388.352 -133.559C388.687 -134.792 388.952 -135.708 389.131 -136.317C389.222 -136.621 389.291 -136.849 389.337 -137C389.361 -137.076 389.379 -137.133 389.39 -137.171L389.404 -137.214L389.407 -137.225L389.408 -137.228ZM411.895 -137.26C411.895 -137.26 411.896 -137.261 412.126 -137.151C412.357 -137.04 412.356 -137.04 412.356 -137.04L412.355 -137.037L412.35 -137.027L412.331 -136.986C412.313 -136.949 412.287 -136.893 412.252 -136.819C412.183 -136.669 412.081 -136.444 411.946 -136.141C411.678 -135.536 411.285 -134.624 410.782 -133.395C409.779 -130.938 408.344 -127.215 406.622 -122.16C403.177 -112.05 398.583 -96.6081 393.988 -75.2921C384.798 -32.6611 378.159 33.4674 378.159 127.435H377.648C377.648 33.4337 384.29 -32.7306 393.488 -75.3999C398.087 -96.7348 402.687 -112.195 406.138 -122.325C407.864 -127.389 409.302 -131.121 410.309 -133.588C410.814 -134.822 411.209 -135.739 411.48 -136.348C411.615 -136.653 411.719 -136.881 411.789 -137.033C411.824 -137.109 411.85 -137.165 411.868 -137.204L411.889 -137.247L411.894 -137.258L411.895 -137.26ZM431.025 -137.151C430.8 -137.271 430.799 -137.27 430.799 -137.27L430.797 -137.266L430.792 -137.256L430.769 -137.212C430.749 -137.175 430.72 -137.117 430.68 -137.041C430.603 -136.89 430.487 -136.662 430.337 -136.357C430.037 -135.747 429.597 -134.83 429.037 -133.596C427.917 -131.129 426.319 -127.397 424.401 -122.332C420.567 -112.202 415.456 -96.7404 410.345 -75.405C400.125 -32.7337 389.907 33.4327 389.907 127.435H390.418C390.418 33.47 400.632 -32.6565 410.842 -75.286C415.947 -96.601 421.052 -112.042 424.879 -122.151C426.793 -127.206 428.387 -130.928 429.502 -133.386C430.059 -134.614 430.497 -135.526 430.795 -136.131C430.945 -136.433 431.058 -136.659 431.135 -136.808C431.173 -136.883 431.202 -136.939 431.222 -136.976L431.243 -137.017L431.249 -137.027L431.25 -137.029C431.25 -137.029 431.251 -137.03 431.025 -137.151Z" fill="url(#paint0_linear_1_3090)"/>
</mask>
<g mask="url(#mask0_1_3090)">
<path d="M221.604 -137.151C221.86 -137.158 221.86 -137.158 221.86 -137.157L221.865 -136.932C221.869 -136.781 221.875 -136.554 221.883 -136.251C221.897 -135.644 221.919 -134.729 221.947 -133.497C222.003 -131.035 222.083 -127.308 222.179 -122.247C222.37 -112.127 222.626 -96.675 222.881 -75.3493C223.392 -32.6979 223.903 33.4495 223.903 127.435H223.392C223.392 33.4516 222.881 -32.6938 222.37 -75.3432C222.115 -96.6679 221.86 -112.119 221.668 -122.238C221.572 -127.298 221.492 -131.024 221.437 -133.486C221.409 -134.717 221.387 -135.631 221.372 -136.238C221.364 -136.542 221.358 -136.768 221.355 -136.919L221.349 -137.143C221.349 -137.143 221.349 -137.144 221.604 -137.151ZM202.96 -137.172C202.96 -137.173 202.96 -137.173 202.705 -137.151C202.451 -137.129 202.451 -137.128 202.451 -137.128L202.455 -137.073C202.459 -137.036 202.464 -136.979 202.47 -136.904C202.482 -136.754 202.501 -136.527 202.525 -136.224C202.574 -135.618 202.645 -134.703 202.736 -133.473C202.917 -131.012 203.177 -127.286 203.488 -122.227C204.11 -112.109 204.94 -96.6597 205.77 -75.3366C207.43 -32.6897 209.09 33.4536 209.09 127.435H209.601C209.601 33.4475 207.941 -32.702 206.281 -75.3565C205.451 -96.6832 204.62 -112.136 203.998 -122.258C203.686 -127.319 203.427 -131.047 203.245 -133.511C203.155 -134.742 203.083 -135.657 203.035 -136.265C203.01 -136.569 202.991 -136.796 202.979 -136.947C202.972 -137.022 202.968 -137.079 202.965 -137.116L202.96 -137.172ZM184.317 -137.151C184.571 -137.181 184.571 -137.181 184.571 -137.181L184.577 -137.124C184.582 -137.087 184.588 -137.03 184.597 -136.955C184.615 -136.804 184.64 -136.577 184.674 -136.273C184.741 -135.665 184.841 -134.749 184.966 -133.518C185.218 -131.054 185.577 -127.326 186.008 -122.264C186.87 -112.142 188.02 -96.6878 189.169 -75.3601C191.468 -32.7046 193.766 33.4465 193.766 127.435H193.256C193.256 33.4546 190.957 -32.6872 188.659 -75.3325C187.51 -96.6551 186.361 -112.104 185.499 -122.221C185.068 -127.279 184.709 -131.005 184.458 -133.466C184.332 -134.696 184.234 -135.61 184.166 -136.216C184.133 -136.52 184.107 -136.746 184.09 -136.896C184.081 -136.971 184.074 -137.027 184.07 -137.065L184.064 -137.12C184.064 -137.12 184.064 -137.12 184.317 -137.151ZM165.668 -137.203C165.668 -137.203 165.668 -137.204 165.418 -137.151C165.168 -137.097 165.168 -137.097 165.168 -137.097L165.171 -137.084L165.18 -137.042C165.188 -137.005 165.199 -136.949 165.215 -136.874C165.245 -136.724 165.291 -136.498 165.351 -136.195C165.471 -135.59 165.646 -134.676 165.869 -133.446C166.315 -130.986 166.954 -127.262 167.72 -122.204C169.251 -112.089 171.294 -96.6423 173.336 -75.3217C177.422 -32.68 181.508 33.4582 181.508 127.435H182.018C182.018 33.4434 177.932 -32.7112 173.845 -75.3703C171.801 -96.7001 169.758 -112.156 168.225 -122.281C167.458 -127.343 166.819 -131.073 166.372 -133.537C166.148 -134.77 165.972 -135.686 165.852 -136.294C165.792 -136.598 165.746 -136.825 165.715 -136.977C165.699 -137.052 165.688 -137.109 165.68 -137.147L165.671 -137.19L165.668 -137.203ZM144.987 -137.151C145.23 -137.229 145.23 -137.228 145.23 -137.228L145.231 -137.225L145.235 -137.214L145.248 -137.171C145.26 -137.133 145.278 -137.076 145.301 -137C145.348 -136.849 145.417 -136.621 145.507 -136.317C145.687 -135.708 145.951 -134.792 146.287 -133.559C146.958 -131.093 147.917 -127.362 149.067 -122.299C151.367 -112.172 154.433 -96.7144 157.498 -75.3825C163.63 -32.7189 169.76 33.4398 169.76 127.435H169.249C169.249 33.4618 163.12 -32.6724 156.993 -75.31C153.929 -96.6286 150.866 -112.073 148.569 -122.186C147.42 -127.242 146.463 -130.966 145.794 -133.424C145.459 -134.654 145.196 -135.567 145.017 -136.172C144.928 -136.475 144.859 -136.701 144.813 -136.85C144.79 -136.925 144.773 -136.981 144.761 -137.018L144.748 -137.06L144.745 -137.07L144.744 -137.072C144.744 -137.072 144.744 -137.073 144.987 -137.151ZM121.211 -137.26C121.211 -137.26 121.21 -137.261 120.98 -137.151C120.75 -137.04 120.75 -137.04 120.75 -137.04L120.751 -137.037L120.756 -137.027L120.776 -136.986C120.793 -136.949 120.819 -136.893 120.854 -136.819C120.923 -136.669 121.025 -136.444 121.16 -136.141C121.428 -135.536 121.822 -134.624 122.324 -133.395C123.327 -130.938 124.762 -127.215 126.485 -122.16C129.929 -112.05 134.523 -96.6081 139.118 -75.2921C148.308 -32.6611 157.501 33.4674 157.501 127.435H158.012C158.012 33.4342 148.816 -32.7306 139.618 -75.3999C135.019 -96.7348 130.419 -112.195 126.968 -122.325C125.242 -127.389 123.804 -131.121 122.797 -133.588C122.293 -134.821 121.897 -135.739 121.626 -136.348C121.491 -136.653 121.387 -136.881 121.317 -137.033C121.282 -137.108 121.256 -137.165 121.238 -137.204L121.217 -137.247L121.212 -137.257L121.211 -137.26ZM294.902 -137.151C294.646 -137.151 294.646 -137.15 294.646 -137.15V127.435H295.157V-137.15C295.157 -137.15 295.157 -137.151 294.902 -137.151ZM275.236 -137.15C275.236 -137.15 275.236 -137.151 275.492 -137.151C275.747 -137.151 275.747 -137.15 275.747 -137.15V127.435H275.236V-137.15ZM240.503 -137.15C240.503 -137.15 240.503 -137.151 240.759 -137.151C241.014 -137.151 241.014 -137.15 241.014 -137.15L241.014 127.435H240.503L240.503 -137.15ZM257.614 -137.151C257.359 -137.151 257.359 -137.15 257.359 -137.15V127.435H257.87V-137.15C257.87 -137.15 257.87 -137.151 257.614 -137.151ZM312.779 -137.157C312.779 -137.157 312.779 -137.158 313.034 -137.151C313.29 -137.144 313.29 -137.143 313.29 -137.143L313.284 -136.919C313.28 -136.768 313.274 -136.542 313.267 -136.238C313.252 -135.631 313.23 -134.717 313.202 -133.486C313.146 -131.024 313.066 -127.298 312.97 -122.238C312.779 -112.119 312.524 -96.6679 312.268 -75.3432C311.757 -32.6938 311.247 33.4516 311.247 127.435H310.736C310.736 33.4495 311.247 -32.6979 311.757 -75.3493C312.013 -96.675 312.268 -112.127 312.46 -122.247C312.556 -127.308 312.635 -131.035 312.691 -133.497C312.719 -134.729 312.741 -135.644 312.756 -136.251C312.764 -136.554 312.769 -136.781 312.773 -136.932L312.779 -137.157ZM331.933 -137.151C331.679 -137.173 331.679 -137.172 331.679 -137.172L331.674 -137.116C331.671 -137.079 331.666 -137.022 331.66 -136.947C331.647 -136.796 331.628 -136.569 331.604 -136.265C331.555 -135.657 331.484 -134.742 331.393 -133.511C331.212 -131.047 330.952 -127.319 330.641 -122.258C330.018 -112.136 329.188 -96.6832 328.358 -75.3565C326.698 -32.7025 325.038 33.4475 325.038 127.435H325.549C325.549 33.4536 327.209 -32.6897 328.869 -75.3366C329.698 -96.6597 330.528 -112.109 331.151 -122.227C331.462 -127.286 331.721 -131.012 331.903 -133.473C331.994 -134.704 332.065 -135.618 332.113 -136.224C332.138 -136.528 332.156 -136.754 332.169 -136.904L332.183 -137.073L332.188 -137.128C332.188 -137.129 332.188 -137.129 331.933 -137.151ZM350.068 -137.181C350.068 -137.181 350.068 -137.182 350.322 -137.151C350.575 -137.12 350.575 -137.12 350.575 -137.12L350.568 -137.065C350.564 -137.027 350.557 -136.971 350.549 -136.896C350.531 -136.746 350.506 -136.52 350.472 -136.216C350.405 -135.61 350.306 -134.696 350.181 -133.466C349.929 -131.005 349.57 -127.28 349.14 -122.221C348.278 -112.104 347.129 -96.6551 345.979 -75.3325C343.681 -32.6872 341.383 33.4546 341.383 127.435H340.872C340.872 33.4465 343.171 -32.7046 345.47 -75.3601C346.619 -96.6878 347.768 -112.142 348.63 -122.264C349.061 -127.326 349.421 -131.054 349.672 -133.518C349.798 -134.749 349.897 -135.665 349.964 -136.273C349.998 -136.577 350.024 -136.804 350.042 -136.955C350.05 -137.03 350.057 -137.087 350.061 -137.124L350.068 -137.181ZM369.22 -137.151C368.971 -137.204 368.971 -137.203 368.971 -137.203L368.968 -137.19L368.958 -137.147C368.951 -137.109 368.939 -137.052 368.923 -136.977C368.893 -136.826 368.846 -136.598 368.786 -136.294C368.666 -135.686 368.491 -134.77 368.267 -133.537C367.819 -131.073 367.18 -127.343 366.414 -122.281C364.881 -112.156 362.837 -96.7001 360.794 -75.3708C356.707 -32.7112 352.62 33.4434 352.62 127.435H353.131C353.131 33.4582 357.217 -32.68 361.302 -75.3217C363.345 -96.6429 365.388 -112.089 366.919 -122.204C367.685 -127.262 368.323 -130.986 368.769 -133.446C368.993 -134.676 369.168 -135.59 369.287 -136.195C369.347 -136.498 369.393 -136.724 369.424 -136.874C369.439 -136.949 369.451 -137.005 369.459 -137.042L369.467 -137.084L369.47 -137.097C369.47 -137.097 369.47 -137.098 369.22 -137.151ZM389.408 -137.228C389.408 -137.228 389.409 -137.229 389.652 -137.151C389.895 -137.073 389.895 -137.072 389.895 -137.072L389.894 -137.07L389.891 -137.06L389.878 -137.018C389.866 -136.981 389.848 -136.925 389.825 -136.85C389.78 -136.701 389.711 -136.475 389.621 -136.172C389.442 -135.567 389.179 -134.654 388.845 -133.424C388.175 -130.966 387.218 -127.242 386.07 -122.186C383.773 -112.073 380.71 -96.6286 377.646 -75.31C371.519 -32.6724 365.39 33.4618 365.39 127.435H364.879C364.879 33.4398 371.009 -32.7189 377.14 -75.3825C380.206 -96.7144 383.272 -112.172 385.572 -122.299C386.722 -127.362 387.681 -131.093 388.352 -133.559C388.687 -134.792 388.952 -135.708 389.131 -136.317C389.222 -136.621 389.291 -136.849 389.337 -137C389.361 -137.076 389.379 -137.133 389.39 -137.171L389.404 -137.214L389.407 -137.225L389.408 -137.228ZM411.895 -137.26C411.895 -137.26 411.896 -137.261 412.126 -137.151C412.357 -137.04 412.356 -137.04 412.356 -137.04L412.355 -137.037L412.35 -137.027L412.331 -136.986C412.313 -136.949 412.287 -136.893 412.252 -136.819C412.183 -136.669 412.081 -136.444 411.946 -136.141C411.678 -135.536 411.285 -134.624 410.782 -133.395C409.779 -130.938 408.344 -127.215 406.622 -122.16C403.177 -112.05 398.583 -96.6081 393.988 -75.2921C384.798 -32.6611 378.159 33.4674 378.159 127.435H377.648C377.648 33.4337 384.29 -32.7306 393.488 -75.3999C398.087 -96.7348 402.687 -112.195 406.138 -122.325C407.864 -127.389 409.302 -131.121 410.309 -133.588C410.814 -134.822 411.209 -135.739 411.48 -136.348C411.615 -136.653 411.719 -136.881 411.789 -137.033C411.824 -137.109 411.85 -137.165 411.868 -137.204L411.889 -137.247L411.894 -137.258L411.895 -137.26ZM431.025 -137.151C430.8 -137.271 430.799 -137.27 430.799 -137.27L430.797 -137.266L430.792 -137.256L430.769 -137.212C430.749 -137.175 430.72 -137.117 430.68 -137.041C430.603 -136.89 430.487 -136.662 430.337 -136.357C430.037 -135.747 429.597 -134.83 429.037 -133.596C427.917 -131.129 426.319 -127.397 424.401 -122.332C420.567 -112.202 415.456 -96.7404 410.345 -75.405C400.125 -32.7337 389.907 33.4327 389.907 127.435H390.418C390.418 33.47 400.632 -32.6565 410.842 -75.286C415.947 -96.601 421.052 -112.042 424.879 -122.151C426.793 -127.206 428.387 -130.928 429.502 -133.386C430.059 -134.614 430.497 -135.526 430.795 -136.131C430.945 -136.433 431.058 -136.659 431.135 -136.808C431.173 -136.883 431.202 -136.939 431.222 -136.976L431.243 -137.017L431.249 -137.027L431.25 -137.029C431.25 -137.029 431.251 -137.03 431.025 -137.151Z" fill="url(#paint1_linear_1_3090)"/>
</g>
<g filter="url(#filter0_f_1_3090)">
<ellipse cx="276" cy="-156.59" rx="130.41" ry="130.41" fill="url(#paint2_linear_1_3090)"/>
</g>
<defs>
<filter id="filter0_f_1_3090" x="-26.9102" y="-459.5" width="605.82" height="605.82" filterUnits="userSpaceOnUse" color-interpolation-filters="sRGB">
<feFlood flood-opacity="0" result="BackgroundImageFix"/>
<feBlend mode="normal" in="SourceGraphic" in2="BackgroundImageFix" result="shape"/>
<feGaussianBlur stdDeviation="86.25" result="effect1_foregroundBlur_1_3090"/>
</filter>
<linearGradient id="paint0_linear_1_3090" x1="430.43" y1="127.365" x2="430.467" y2="-136.677" gradientUnits="userSpaceOnUse">
<stop offset="0.5" stop-color="white" stop-opacity="0"/>
<stop offset="0.83" stop-color="white" stop-opacity="0.5"/>
<stop offset="1" stop-color="white"/>
</linearGradient>
<linearGradient id="paint1_linear_1_3090" x1="430.43" y1="127.365" x2="430.467" y2="-136.677" gradientUnits="userSpaceOnUse">
<stop stop-color="#75104A"/>
<stop offset="0.5" stop-color="#FF76C5"/>
<stop offset="1" stop-color="#75104A"/>
</linearGradient>
<linearGradient id="paint2_linear_1_3090" x1="276" y1="-287" x2="276" y2="-26.18" gradientUnits="userSpaceOnUse">
<stop stop-opacity="0"/>
<stop offset="0.489583" stop-color="#9C1462"/>
</linearGradient>
</defs>
</svg>
